<svg width="70" height="47" viewBox="0 0 70 47" fill="none" xmlns="http://www.w3.org/2000/svg">
<path d="M0.393749 46V0.75H18.8937C29.0812 0.75 35.3312 7.125 35.3312 16.3125C35.3312 25.6875 28.9562 31.8125 18.5812 31.8125H11.0187V46H0.393749ZM11.0187 23.375H16.6437C21.6437 23.375 24.3312 20.5625 24.3312 16.3125C24.3312 12.0625 21.6437 9.375 16.6437 9.375H11.0187V23.375ZM58.6063 22.5625C58.2938 20.3125 56.2938 18.875 53.4813 18.875C50.8563 18.875 48.7938 20.0625 48.8563 21.8125C48.7938 23.125 49.7938 24.1875 52.7313 24.75L59.1688 26C65.9188 27.3125 69.1688 30.25 69.2313 35.1875C69.1688 42.125 62.7938 46.625 53.6063 46.625C43.9188 46.625 38.2313 42.3125 37.5438 35.5625H48.0438C48.4188 38 50.5438 39.3125 53.6688 39.3125C56.5438 39.3125 58.4813 38.1875 58.5438 36.3125C58.4813 34.8125 57.1688 33.875 54.2313 33.25L48.4188 32.1875C41.7313 30.9375 38.3563 27.5625 38.4188 22.375C38.3563 15.625 44.1063 11.625 53.2938 11.625C62.4188 11.625 67.9813 15.8125 68.4188 22.5625H58.6063Z" fill="#111111"/>
</svg>
